<svg viewBox="0 0 290 107" preserveAspectRatio="xMidYMid meet" class="css-g5ufxp" id="fhcfdggd">
    <defs id="SvgjsDefs1001"></defs>
    <g id="SvgjsG1007" featurekey="rootContainer" transform="matrix(1,0,0,1,0,0)" fill="#fff">
        <rect xmlns="http://www.w3.org/2000/svg" width="290" height="107" rx="10" ry="10"></rect>
    </g>
    <g id="SvgjsG1008" featurekey="nameFeature-0" transform="matrix(1.8163324695481065,0,0,1.8163324695481065,12.734670121807575,0.23830598783309753)" fill="#111">
        <path d="M4 40 l0 -28.88 l16.04 0 c3.8 0 7.48 0.48 10.4 2.4 c3.6 2.36 5.96 6.52 5.96 11.76 c0 5.08 -1.88 8.92 -4.6 11.24 c-2.48 2.12 -6.48 3.48 -12.36 3.48 l-15.44 0 z M12.4 16.72 l0 17.68 l3.8 0 c6.8 0 11.56 -1.04 11.56 -8.96 c0 -6.8 -3.96 -8.72 -10.16 -8.72 l-5.2 0 z M73.4 11.120000000000001 l0 15.68 c0 10 -5.56 13.96 -15.6 13.96 c-10.08 0 -15.64 -3.64 -15.64 -12.84 l0 -16.8 l8.4 0 l0 16.2 c0 5.2 2.6 7.52 7.24 7.52 c5.52 0 7.2 -3.48 7.2 -8.56 l0 -15.16 l8.4 0 z M80.60000000000001 40 l0 -20.08 l7.68 0 l0 20.08 l-7.68 0 z M88.64 11.120000000000001 l0 5.6 l-8.4 0 l0 -5.6 l8.4 0 z M97.4 40 l0 -15.2 l-4.64 0 l0 -4.88 l4.64 0 c0 -7.76 3.56 -9.04 10.92 -9.04 c0.84 0 2.52 0.12 3.36 0.24 l0 4.56 c-0.6 -0.08 -1.32 -0.16 -2.08 -0.16 c-2.96 0 -4.4 0.68 -4.4 4.4 l6.04 0 l0 4.88 l-6.16 0 l0 15.2 l-7.68 0 z M119.16000000000001 47.68 l4.36 -7.68 l-10.32 -20.08 l8.96 0 l5.76 13.8 l6.16 -13.8 l7.56 0 l-14.32 27.76 l-8.16 0 z"></path>
    </g>
</svg>